<svg id="Layer_1" data-name="Layer 1" xmlns="http://www.w3.org/2000/svg" viewBox="0 0 473.18 598.92"><defs><style>.cls-1{fill:none;stroke:#e13626;stroke-miterlimit:10;stroke-width:6px;opacity:0.75;}.cls-2{fill:#aa0202;}.cls-3{fill:#e13626;}.cls-4{fill:#f15a24;}.cls-5{fill:#fff;}</style></defs><title>logo</title><circle class="cls-1" cx="234.76" cy="311.14" r="171.16"/><path class="cls-2" d="M372,688.42s-115-141.5,0-322.5v322.5Z" transform="translate(-134.91 -89.5)"/><path class="cls-3" d="M372,688.42s115-141.5,0-322.5v322.5Z" transform="translate(-134.91 -89.5)"/><path class="cls-2" d="M135.91,234.68s181.87-13,264.18,185Z" transform="translate(-134.91 -89.5)"/><path class="cls-3" d="M135.91,234.68s49.95,175.36,264.18,185Z" transform="translate(-134.91 -89.5)"/><path class="cls-3" d="M608.09,234.68s-181.87-13-264.18,185Z" transform="translate(-134.91 -89.5)"/><path class="cls-2" d="M608.09,234.68S558.14,410,343.91,419.66Z" transform="translate(-134.91 -89.5)"/><path class="cls-4" d="M371,89.5S256,231,371,412V89.5Z" transform="translate(-134.91 -89.5)"/><path class="cls-3" d="M370,89.5S485,231,370,412V89.5Z" transform="translate(-134.91 -89.5)"/><path class="cls-4" d="M134.91,543.24s181.87,13,264.18-185Z" transform="translate(-134.91 -89.5)"/><path class="cls-3" d="M134.91,543.24s49.95-175.36,264.18-185Z" transform="translate(-134.91 -89.5)"/><path class="cls-3" d="M607.09,543.24s-181.87,13-264.18-185Z" transform="translate(-134.91 -89.5)"/><path class="cls-4" d="M607.09,543.24s-49.95-175.36-264.18-185Z" transform="translate(-134.91 -89.5)"/><circle class="cls-5" cx="234.76" cy="311.14" r="54.28"/></svg>