<?xml version="1.0" encoding="utf-8"?>
<!-- Generator: Adobe Illustrator 19.2.1, SVG Export Plug-In . SVG Version: 6.00 Build 0)  -->
<svg version="1.1" id="レイヤー_1" xmlns="http://www.w3.org/2000/svg" xmlns:xlink="http://www.w3.org/1999/xlink" x="0px"
	 y="0px" viewBox="0 0 212.2 61.5" style="enable-background:new 0 0 212.2 61.5;" xml:space="preserve">
<style type="text/css">
	.st0{display:none;}
	.st1{display:inline;}
	.st2{opacity:0.75;}
	.st3{fill:#E13626;}
	.st4{fill:#AA0202;}
	.st5{fill:#F15A24;}
	.st6{fill:#FFFFFF;}
	.st7{display:inline;enable-background:new    ;}
	.st8{fill:#ED4747;}
	.st9{enable-background:new    ;}
</style>
<g class="st0">
	<g class="st1">
		<g class="st2">
			<path class="st3" d="M25.5,14.3c9.5,0,17.3,7.7,17.3,17.3S35,48.9,25.5,48.9S8.2,41.2,8.2,31.6S16,14.3,25.5,14.3 M25.5,13.3
				c-10.1,0-18.3,8.2-18.3,18.3s8.2,18.3,18.3,18.3s18.3-8.2,18.3-18.3S35.6,13.3,25.5,13.3L25.5,13.3z"/>
		</g>
		<g>
			<path class="st3" d="M25.7,61c0,0-13-14.3,0-32.6C25.7,39,25.7,61,25.7,61z"/>
			<path class="st4" d="M25.7,61c0,0,12-14.3,0-32.6C25.7,39,25.7,61,25.7,61z"/>
		</g>
		<g>
			<path class="st3" d="M0.6,15.2c0,0,18.4-1.3,26.7,18.7C18.6,27.8,0.6,15.2,0.6,15.2z"/>
			<path class="st4" d="M0.6,15.2c0,0,5,17.7,26.7,18.7C18.6,27.8,0.6,15.2,0.6,15.2z"/>
		</g>
		<g>
			<path class="st4" d="M50.5,15.2c0,0-18.4-1.3-26.7,18.7C32.5,27.8,50.5,15.2,50.5,15.2z"/>
			<path class="st3" d="M50.5,15.2c0,0-5,17.7-26.7,18.7C32.5,27.8,50.5,15.2,50.5,15.2z"/>
		</g>
		<g>
			<g>
				<path class="st3" d="M50.5,46.3c0,0-18.4,1.3-26.7-18.7C32.6,33.7,50.5,46.3,50.5,46.3z"/>
				<path class="st5" d="M50.5,46.3c0,0-5-17.7-26.7-18.7C32.6,33.7,50.5,46.3,50.5,46.3z"/>
			</g>
			<g>
				<path class="st5" d="M25.7,0.5c0,0-13,14.3,0,32.6C25.7,22.5,25.7,0.5,25.7,0.5z"/>
				<path class="st3" d="M25.7,0.5c0,0,12,14.3,0,32.6C25.7,22.5,25.7,0.5,25.7,0.5z"/>
			</g>
			<g>
				<path class="st5" d="M0.5,46.3c0,0,18.4,1.3,26.7-18.7C18.5,33.7,0.5,46.3,0.5,46.3z"/>
				<path class="st3" d="M0.5,46.3c0,0,5-17.7,26.7-18.7C18.5,33.7,0.5,46.3,0.5,46.3z"/>
			</g>
		</g>
		<circle class="st6" cx="25.5" cy="31.6" r="5.5"/>
	</g>
	<g class="st7">
		<g>
			<path class="st8" d="M71.3,40.8h3.1v2.5h-9.1v-2.5H68V20.6h-2.7v-2.5h9.5c3.1,0,5.5,0.7,7.2,2s2.5,3.3,2.5,5.8
				c0,2.5-0.8,4.4-2.5,5.8c-1.7,1.4-4.1,2.1-7.1,2.1h-3.4V40.8z M71.3,20.6v10.7h3c2.2,0,3.8-0.4,4.9-1.3c1.1-0.9,1.6-2.2,1.6-4
				s-0.6-3.1-1.8-4c-1.2-0.9-2.9-1.3-5.3-1.3H71.3z"/>
			<path class="st8" d="M90.6,40.8h2.8v2.5h-8.8v-2.5h2.7V20.6h-2.7v-2.5h10.8c2.9,0,5,0.5,6.4,1.5c1.4,1,2.1,2.6,2.1,4.8
				c0,1.4-0.3,2.5-1,3.5c-0.7,0.9-1.8,1.7-3.3,2.4c1.2,0.4,2.1,0.9,2.6,1.7c0.5,0.8,0.7,2.1,0.7,3.9v4.9h2.8v2.5h-6.1v-6.9
				c0-2-0.3-3.3-1-4c-0.7-0.6-1.9-0.9-3.8-0.9h-4.1V40.8z M90.6,20.6v8.3h3.6c2.2,0,3.7-0.3,4.7-1c1-0.7,1.5-1.7,1.5-3.2
				c0-1.5-0.5-2.6-1.4-3.2c-0.9-0.6-2.5-0.9-4.8-0.9H90.6z"/>
			<path class="st8" d="M107.3,43.3v-2.5h2.7V20.6h-2.7v-2.5h19.5V25h-3v-4.3h-10.5v8h8.8v2.8h-8.8v9.4h10.5v-4.9h3v7.5H107.3z"/>
			<path class="st8" d="M146.7,41.4v2h-17.5v-2H146.7z"/>
			<path class="st8" d="M170.8,35.4c-0.6,2.7-1.9,4.7-3.9,6.2c-1.9,1.5-4.3,2.2-7.1,2.2c-3.7,0-6.8-1.2-9.2-3.7
				c-2.4-2.5-3.6-5.6-3.6-9.4c0-3.7,1.2-6.9,3.6-9.4c2.4-2.5,5.4-3.7,9-3.7c1.6,0,3.1,0.2,4.4,0.7c1.3,0.5,2.4,1.2,3.2,2.1v-2.4h2.7
				v7.8h-2.6c-0.6-1.8-1.5-3.1-2.7-4c-1.2-0.9-2.8-1.3-4.8-1.3c-2.8,0-5.1,0.9-6.8,2.8c-1.7,1.8-2.5,4.3-2.5,7.4
				c0,3,0.9,5.5,2.6,7.3c1.8,1.9,4.1,2.8,6.9,2.8c1.9,0,3.5-0.5,4.7-1.4s2.3-2.3,3-4.1H170.8z"/>
			<path class="st8" d="M175.5,40.6v2.7h-2.8v-8.6h2.8c0.5,2,1.4,3.5,2.7,4.6c1.3,1.1,2.8,1.6,4.6,1.6c1.4,0,2.5-0.4,3.4-1.3
				s1.4-1.9,1.4-3.1c0-1.1-0.4-2-1.1-2.7c-0.7-0.7-2-1.3-3.7-1.7l-2.6-0.7c-2.5-0.7-4.3-1.6-5.5-2.7c-1.1-1.1-1.7-2.5-1.7-4.3
				c0-2,0.7-3.7,2.1-4.9c1.4-1.2,3.2-1.9,5.5-1.9c1.4,0,2.6,0.2,3.6,0.7s1.9,1.1,2.5,2v-2.2h2.4v7.2h-2.4c-0.4-1.6-1.2-2.8-2.3-3.6
				c-1.1-0.8-2.5-1.3-4.1-1.3c-1.3,0-2.3,0.3-3.2,1c-0.8,0.7-1.2,1.6-1.2,2.7c0,1,0.3,1.8,1,2.4c0.7,0.6,1.9,1.1,3.7,1.6l2,0.5
				c2.9,0.7,5,1.7,6.3,2.9c1.3,1.2,1.9,2.8,1.9,4.8c0,2.2-0.8,4-2.4,5.4c-1.6,1.4-3.6,2.1-6,2.1c-1.4,0-2.7-0.3-4-0.9
				C177.3,42.4,176.3,41.6,175.5,40.6z"/>
			<path class="st8" d="M195.6,40.6v2.7h-2.8v-8.6h2.8c0.5,2,1.4,3.5,2.7,4.6c1.3,1.1,2.8,1.6,4.6,1.6c1.4,0,2.5-0.4,3.4-1.3
				s1.4-1.9,1.4-3.1c0-1.1-0.4-2-1.1-2.7c-0.7-0.7-2-1.3-3.7-1.7l-2.6-0.7c-2.5-0.7-4.3-1.6-5.5-2.7c-1.1-1.1-1.7-2.5-1.7-4.3
				c0-2,0.7-3.7,2.1-4.9c1.4-1.2,3.2-1.9,5.5-1.9c1.4,0,2.6,0.2,3.6,0.7s1.9,1.1,2.5,2v-2.2h2.4v7.2h-2.4c-0.4-1.6-1.2-2.8-2.3-3.6
				c-1.1-0.8-2.5-1.3-4.1-1.3c-1.3,0-2.3,0.3-3.2,1c-0.8,0.7-1.2,1.6-1.2,2.7c0,1,0.3,1.8,1,2.4c0.7,0.6,1.9,1.1,3.7,1.6l2,0.5
				c2.9,0.7,5,1.7,6.3,2.9c1.3,1.2,1.9,2.8,1.9,4.8c0,2.2-0.8,4-2.4,5.4c-1.6,1.4-3.6,2.1-6,2.1c-1.4,0-2.7-0.3-4-0.9
				C197.4,42.4,196.4,41.6,195.6,40.6z"/>
		</g>
	</g>
</g>
<g>
	<g>
		<g class="st2">
			<path class="st3" d="M25.5,14.3c9.5,0,17.3,7.7,17.3,17.3S35,48.9,25.5,48.9S8.2,41.2,8.2,31.6S16,14.3,25.5,14.3 M25.5,13.3
				c-10.1,0-18.3,8.2-18.3,18.3s8.2,18.3,18.3,18.3s18.3-8.2,18.3-18.3S35.6,13.3,25.5,13.3L25.5,13.3z"/>
		</g>
		<g>
			<path class="st3" d="M25.7,61c0,0-13-14.3,0-32.6C25.7,39,25.7,61,25.7,61z"/>
			<path class="st4" d="M25.7,61c0,0,12-14.3,0-32.6C25.7,39,25.7,61,25.7,61z"/>
		</g>
		<g>
			<path class="st3" d="M0.6,15.2c0,0,18.4-1.3,26.7,18.7C18.6,27.8,0.6,15.2,0.6,15.2z"/>
			<path class="st4" d="M0.6,15.2c0,0,5,17.7,26.7,18.7C18.6,27.8,0.6,15.2,0.6,15.2z"/>
		</g>
		<g>
			<path class="st4" d="M50.5,15.2c0,0-18.4-1.3-26.7,18.7C32.5,27.8,50.5,15.2,50.5,15.2z"/>
			<path class="st3" d="M50.5,15.2c0,0-5,17.7-26.7,18.7C32.5,27.8,50.5,15.2,50.5,15.2z"/>
		</g>
		<g>
			<g>
				<path class="st3" d="M50.5,46.3c0,0-18.4,1.3-26.7-18.7C32.6,33.7,50.5,46.3,50.5,46.3z"/>
				<path class="st5" d="M50.5,46.3c0,0-5-17.7-26.7-18.7C32.6,33.7,50.5,46.3,50.5,46.3z"/>
			</g>
			<g>
				<path class="st5" d="M25.7,0.5c0,0-13,14.3,0,32.6C25.7,22.5,25.7,0.5,25.7,0.5z"/>
				<path class="st3" d="M25.7,0.5c0,0,12,14.3,0,32.6C25.7,22.5,25.7,0.5,25.7,0.5z"/>
			</g>
			<g>
				<path class="st5" d="M0.5,46.3c0,0,18.4,1.3,26.7-18.7C18.5,33.7,0.5,46.3,0.5,46.3z"/>
				<path class="st3" d="M0.5,46.3c0,0,5-17.7,26.7-18.7C18.5,33.7,0.5,46.3,0.5,46.3z"/>
			</g>
		</g>
		<circle class="st6" cx="25.5" cy="31.6" r="5.5"/>
	</g>
	<g class="st9">
		<g>
			<path class="st8" d="M71.3,40.8h3.1v2.5h-9.1v-2.5H68V20.6h-2.7v-2.5h9.5c3.1,0,5.5,0.7,7.2,2s2.5,3.3,2.5,5.8
				c0,2.5-0.8,4.4-2.5,5.8c-1.7,1.4-4.1,2.1-7.1,2.1h-3.4V40.8z M71.3,20.6v10.7h3c2.2,0,3.8-0.4,4.9-1.3c1.1-0.9,1.6-2.2,1.6-4
				s-0.6-3.1-1.8-4c-1.2-0.9-2.9-1.3-5.3-1.3H71.3z"/>
			<path class="st8" d="M90.6,40.8h2.8v2.5h-8.8v-2.5h2.7V20.6h-2.7v-2.5h10.8c2.9,0,5,0.5,6.4,1.5c1.4,1,2.1,2.6,2.1,4.8
				c0,1.4-0.3,2.5-1,3.5c-0.7,0.9-1.8,1.7-3.3,2.4c1.2,0.4,2.1,0.9,2.6,1.7c0.5,0.8,0.7,2.1,0.7,3.9v4.9h2.8v2.5h-6.1v-6.9
				c0-2-0.3-3.3-1-4c-0.7-0.6-1.9-0.9-3.8-0.9h-4.1V40.8z M90.6,20.6v8.3h3.6c2.2,0,3.7-0.3,4.7-1c1-0.7,1.5-1.7,1.5-3.2
				c0-1.5-0.5-2.6-1.4-3.2c-0.9-0.6-2.5-0.9-4.8-0.9H90.6z"/>
			<path class="st8" d="M107.3,43.3v-2.5h2.7V20.6h-2.7v-2.5h19.5V25h-3v-4.3h-10.5v8h8.8v2.8h-8.8v9.4h10.5v-4.9h3v7.5H107.3z"/>
			<path class="st8" d="M146.7,41.4v2h-17.5v-2H146.7z"/>
			<path class="st8" d="M170.8,35.4c-0.6,2.7-1.9,4.7-3.9,6.2c-1.9,1.5-4.3,2.2-7.1,2.2c-3.7,0-6.8-1.2-9.2-3.7
				c-2.4-2.5-3.6-5.6-3.6-9.4c0-3.7,1.2-6.9,3.6-9.4c2.4-2.5,5.4-3.7,9-3.7c1.6,0,3.1,0.2,4.4,0.7c1.3,0.5,2.4,1.2,3.2,2.1v-2.4h2.7
				v7.8h-2.6c-0.6-1.8-1.5-3.1-2.7-4c-1.2-0.9-2.8-1.3-4.8-1.3c-2.8,0-5.1,0.9-6.8,2.8c-1.7,1.8-2.5,4.3-2.5,7.4
				c0,3,0.9,5.5,2.6,7.3c1.8,1.9,4.1,2.8,6.9,2.8c1.9,0,3.5-0.5,4.7-1.4s2.3-2.3,3-4.1H170.8z"/>
			<path class="st8" d="M175.5,40.6v2.7h-2.8v-8.6h2.8c0.5,2,1.4,3.5,2.7,4.6c1.3,1.1,2.8,1.6,4.6,1.6c1.4,0,2.5-0.4,3.4-1.3
				s1.4-1.9,1.4-3.1c0-1.1-0.4-2-1.1-2.7c-0.7-0.7-2-1.3-3.7-1.7l-2.6-0.7c-2.5-0.7-4.3-1.6-5.5-2.7c-1.1-1.1-1.7-2.5-1.7-4.3
				c0-2,0.7-3.7,2.1-4.9c1.4-1.2,3.2-1.9,5.5-1.9c1.4,0,2.6,0.2,3.6,0.7s1.9,1.1,2.5,2v-2.2h2.4v7.2h-2.4c-0.4-1.6-1.2-2.8-2.3-3.6
				c-1.1-0.8-2.5-1.3-4.1-1.3c-1.3,0-2.3,0.3-3.2,1c-0.8,0.7-1.2,1.6-1.2,2.7c0,1,0.3,1.8,1,2.4c0.7,0.6,1.9,1.1,3.7,1.6l2,0.5
				c2.9,0.7,5,1.7,6.3,2.9c1.3,1.2,1.9,2.8,1.9,4.8c0,2.2-0.8,4-2.4,5.4c-1.6,1.4-3.6,2.1-6,2.1c-1.4,0-2.7-0.3-4-0.9
				C177.3,42.4,176.3,41.6,175.5,40.6z"/>
			<path class="st8" d="M195.6,40.6v2.7h-2.8v-8.6h2.8c0.5,2,1.4,3.5,2.7,4.6c1.3,1.1,2.8,1.6,4.6,1.6c1.4,0,2.5-0.4,3.4-1.3
				s1.4-1.9,1.4-3.1c0-1.1-0.4-2-1.1-2.7c-0.7-0.7-2-1.3-3.7-1.7l-2.6-0.7c-2.5-0.7-4.3-1.6-5.5-2.7c-1.1-1.1-1.7-2.5-1.7-4.3
				c0-2,0.7-3.7,2.1-4.9c1.4-1.2,3.2-1.9,5.5-1.9c1.4,0,2.6,0.2,3.6,0.7s1.9,1.1,2.5,2v-2.2h2.4v7.2h-2.4c-0.4-1.6-1.2-2.8-2.3-3.6
				c-1.1-0.8-2.5-1.3-4.1-1.3c-1.3,0-2.3,0.3-3.2,1c-0.8,0.7-1.2,1.6-1.2,2.7c0,1,0.3,1.8,1,2.4c0.7,0.6,1.9,1.1,3.7,1.6l2,0.5
				c2.9,0.7,5,1.7,6.3,2.9c1.3,1.2,1.9,2.8,1.9,4.8c0,2.2-0.8,4-2.4,5.4c-1.6,1.4-3.6,2.1-6,2.1c-1.4,0-2.7-0.3-4-0.9
				C197.4,42.4,196.4,41.6,195.6,40.6z"/>
		</g>
	</g>
</g>
</svg>
