<svg id="レイヤー_1" data-name="レイヤー 1" xmlns="http://www.w3.org/2000/svg" viewBox="0 0 212.71 60.5"><defs><style>.cls-1{opacity:0.75;}.cls-2{fill:#e13626;}.cls-3{fill:#aa0202;}.cls-4{fill:#f15a24;}.cls-5{fill:#fff;}.cls-6{isolation:isolate;}.cls-7{font-size:35px;fill:#ed4747;font-family:GeoSlab703 Md BT;}.cls-8{letter-spacing:-1px;}.cls-9{letter-spacing:1px;}.cls-10{letter-spacing:-2px;}.cls-11{letter-spacing:-3px;}</style></defs><title>logo</title><g class="cls-1"><path class="cls-2" d="M25.5,14.3A17.3,17.3,0,1,1,8.2,31.6,17.31,17.31,0,0,1,25.5,14.3m0-1A18.3,18.3,0,1,0,43.8,31.6,18.31,18.31,0,0,0,25.5,13.3h0Z" transform="translate(-0.5 -0.5)"/></g><path class="cls-2" d="M25.7,61s-13-14.3,0-32.6V61Z" transform="translate(-0.5 -0.5)"/><path class="cls-3" d="M25.7,61s12-14.3,0-32.6V61Z" transform="translate(-0.5 -0.5)"/><path class="cls-2" d="M0.6,15.2S19,13.9,27.3,33.9Z" transform="translate(-0.5 -0.5)"/><path class="cls-3" d="M0.6,15.2s5,17.7,26.7,18.7Z" transform="translate(-0.5 -0.5)"/><path class="cls-3" d="M50.5,15.2S32.1,13.9,23.8,33.9Z" transform="translate(-0.5 -0.5)"/><path class="cls-2" d="M50.5,15.2s-5,17.7-26.7,18.7Z" transform="translate(-0.5 -0.5)"/><path class="cls-2" d="M50.5,46.3S32.1,47.6,23.8,27.6C32.6,33.7,50.5,46.3,50.5,46.3Z" transform="translate(-0.5 -0.5)"/><path class="cls-4" d="M50.5,46.3s-5-17.7-26.7-18.7C32.6,33.7,50.5,46.3,50.5,46.3Z" transform="translate(-0.5 -0.5)"/><path class="cls-4" d="M25.7,0.5s-13,14.3,0,32.6V0.5Z" transform="translate(-0.5 -0.5)"/><path class="cls-2" d="M25.7,0.5s12,14.3,0,32.6V0.5Z" transform="translate(-0.5 -0.5)"/><path class="cls-4" d="M0.5,46.3s18.4,1.3,26.7-18.7Z" transform="translate(-0.5 -0.5)"/><path class="cls-2" d="M0.5,46.3s5-17.7,26.7-18.7Z" transform="translate(-0.5 -0.5)"/><circle class="cls-5" cx="25" cy="31.1" r="5.5"/><g class="cls-6"><text class="cls-7" transform="translate(63.79 42.83)"><tspan class="cls-8">P</tspan><tspan x="19.29" y="0">R</tspan><tspan class="cls-9" x="42.04" y="0">E</tspan><tspan x="64.88" y="-8.2">_</tspan><tspan class="cls-10" x="81.68" y="0">C</tspan><tspan class="cls-11" x="105.62" y="0">S</tspan><tspan x="125.68" y="0">S</tspan></text></g></svg>