<svg id="レイヤー_1" data-name="レイヤー 1" xmlns="http://www.w3.org/2000/svg" viewBox="0 0 810 400"><defs><style>.cls-1{fill:#3b3f41;}.cls-2{fill:#27c63d;}.cls-3{fill:#f2b82c;}.cls-4{fill:#f05b54;}.cls-5{fill:#fefefe;}.cls-6{fill:#e9e9e9;}.cls-7{fill:#292d2f;}.cls-8{fill:#f7f7f7;}</style></defs><title>mv_back</title><path class="cls-1" d="M3,0H807a3,3,0,0,1,3,3V21a0,0,0,0,1,0,0H0a0,0,0,0,1,0,0V3A3,3,0,0,1,3,0Z"/><circle class="cls-2" cx="54.42" cy="11.13" r="6"/><circle class="cls-3" cx="34.23" cy="11.13" r="6"/><circle class="cls-4" cx="13.98" cy="11.13" r="6"/><path class="cls-5" d="M0,374.78H810a0,0,0,0,1,0,0V397a3,3,0,0,1-3,3H3a3,3,0,0,1-3-3V374.78a0,0,0,0,1,0,0Z"/><rect class="cls-6" y="373.95" width="810" height="1"/><rect class="cls-7" y="21.01" width="810" height="1"/><rect class="cls-8" y="21.97" width="810" height="352"/></svg>